# xmcd
#
# Track frame offsets:
#	150
#	17882
#	36801
#	56113
#	86838
#	105015
#	127224
#	157311
#	179986
#	212078
#	234590
#	254287
#	272881
#	307601
#	322285
#
# Disc length: 4611 seconds
#
# Revision: 0
# Processed by: cddbd v1.4PL0 Copyright (c) Steve Scherf et al.
# Submitted via: EasyCDDAExtractor 4.5.0.1
#
DISCID=e012010f
DTITLE=Gary Moore - Ballads and Bblues 1982 - 1994
DYEAR=1900
DGENRE=
TTITLE0=Always gonna love you
TTITLE1=Still got the blues
TTITLE2=Empty rooms
TTITLE3=Parisiene walkaways
TTITLE4=One day
TTITLE5=Separate ways
TTITLE6=Story of the blues
TTITLE7=Crying in the shadows
TTITLE8=With love
TTITLE9=Midnight blues
TTITLE10=Falling in love with you
TTITLE11=Jumpin' at shadows
TTITLE12=Blues for narada
TTITLE13=Johny boy
TTITLE14=Love that burns
EXTD=
EXTT0=
EXTT1=
EXTT2=
EXTT3=
EXTT4=
EXTT5=
EXTT6=
EXTT7=
EXTT8=
EXTT9=
EXTT10=
EXTT11=
EXTT12=
EXTT13=
EXTT14=
PLAYORDER=
